<?xml version="1.0" encoding="UTF-8"?>
<svg xmlns="http://www.w3.org/2000/svg" xmlns:xlink="http://www.w3.org/1999/xlink" viewBox="0 0 128 128" width="128px" height="128px">
<g id="surface38739406">
<path style=" stroke:none;fill-rule:nonzero;fill:rgb(48.235294%,74.509805%,92.156863%);fill-opacity:1;" d="M 10.03125 14.488281 L 20.960938 104.980469 C 21.351562 108.1875 23.636719 110.851562 26.761719 111.738281 L 61.832031 121.691406 C 63.25 122.09375 64.753906 122.105469 66.175781 121.71875 L 103.058594 111.726562 C 106.289062 110.851562 108.636719 108.09375 108.96875 104.785156 L 118.066406 14.410156 C 118.304688 12.046875 116.441406 10 114.050781 10 L 14.039062 10 C 11.617188 10 9.738281 12.101562 10.03125 14.488281 Z M 10.03125 14.488281 "/>
<path style=" stroke:none;fill-rule:nonzero;fill:rgb(67.450982%,89.019608%,100%);fill-opacity:1;" d="M 114.050781 10 L 64 10 L 64 122 C 64.730469 122.003906 65.464844 121.910156 66.175781 121.71875 L 103.058594 111.726562 C 106.289062 110.851562 108.636719 108.09375 108.96875 104.785156 L 118.066406 14.410156 C 118.304688 12.046875 116.441406 10 114.050781 10 Z M 114.050781 10 "/>
<path style=" stroke:none;fill-rule:nonzero;fill:rgb(55.29412%,42.352942%,62.352943%);fill-opacity:1;" d="M 64.050781 124 C 63.121094 124 62.1875 123.871094 61.285156 123.617188 L 26.214844 113.660156 C 22.304688 112.550781 19.460938 109.238281 18.972656 105.21875 L 8.042969 14.726562 C 7.835938 13.027344 8.371094 11.316406 9.507812 10.035156 C 10.65625 8.742188 12.304688 8 14.039062 8 L 114.050781 8 C 115.761719 8 117.394531 8.722656 118.539062 9.988281 C 119.675781 11.246094 120.230469 12.929688 120.058594 14.613281 L 110.960938 104.984375 C 110.542969 109.089844 107.578125 112.574219 103.578125 113.652344 L 66.699219 123.644531 C 65.832031 123.882812 64.941406 124 64.050781 124 Z M 14.039062 12 C 13.441406 12 12.894531 12.242188 12.503906 12.6875 C 12.121094 13.121094 11.945312 13.675781 12.015625 14.246094 L 22.949219 104.738281 C 23.238281 107.152344 24.953125 109.144531 27.308594 109.8125 L 62.378906 119.769531 C 63.449219 120.070312 64.578125 120.078125 65.652344 119.789062 L 102.535156 109.796875 C 104.945312 109.144531 106.734375 107.050781 106.980469 104.585938 L 116.078125 14.210938 C 116.136719 13.644531 115.957031 13.097656 115.574219 12.671875 C 115.179688 12.238281 114.636719 12 114.050781 12 Z M 14.039062 12 "/>
<path style=" stroke:none;fill-rule:nonzero;fill:rgb(55.29412%,42.352942%,62.352943%);fill-opacity:1;" d="M 14 24 C 12.894531 24 12 23.105469 12 22 L 12 18 C 12 16.894531 12.894531 16 14 16 C 15.105469 16 16 16.894531 16 18 L 16 22 C 16 23.105469 15.105469 24 14 24 Z M 24 24 C 22.894531 24 22 23.105469 22 22 L 22 18 C 22 16.894531 22.894531 16 24 16 C 25.105469 16 26 16.894531 26 18 L 26 22 C 26 23.105469 25.105469 24 24 24 Z M 34 24 C 32.894531 24 32 23.105469 32 22 L 32 18 C 32 16.894531 32.894531 16 34 16 C 35.105469 16 36 16.894531 36 18 L 36 22 C 36 23.105469 35.105469 24 34 24 Z M 44 24 C 42.894531 24 42 23.105469 42 22 L 42 18 C 42 16.894531 42.894531 16 44 16 C 45.105469 16 46 16.894531 46 18 L 46 22 C 46 23.105469 45.105469 24 44 24 Z M 54 24 C 52.894531 24 52 23.105469 52 22 L 52 18 C 52 16.894531 52.894531 16 54 16 C 55.105469 16 56 16.894531 56 18 L 56 22 C 56 23.105469 55.105469 24 54 24 Z M 64 24 C 62.894531 24 62 23.105469 62 22 L 62 18 C 62 16.894531 62.894531 16 64 16 C 65.105469 16 66 16.894531 66 18 L 66 22 C 66 23.105469 65.105469 24 64 24 Z M 74 24 C 72.894531 24 72 23.105469 72 22 L 72 18 C 72 16.894531 72.894531 16 74 16 C 75.105469 16 76 16.894531 76 18 L 76 22 C 76 23.105469 75.105469 24 74 24 Z M 84 24 C 82.894531 24 82 23.105469 82 22 L 82 18 C 82 16.894531 82.894531 16 84 16 C 85.105469 16 86 16.894531 86 18 L 86 22 C 86 23.105469 85.105469 24 84 24 Z M 94 24 C 92.894531 24 92 23.105469 92 22 L 92 18 C 92 16.894531 92.894531 16 94 16 C 95.105469 16 96 16.894531 96 18 L 96 22 C 96 23.105469 95.105469 24 94 24 Z M 104 24 C 102.894531 24 102 23.105469 102 22 L 102 18 C 102 16.894531 102.894531 16 104 16 C 105.105469 16 106 16.894531 106 18 L 106 22 C 106 23.105469 105.105469 24 104 24 Z M 114 24 C 112.894531 24 112 23.105469 112 22 L 112 18 C 112 16.894531 112.894531 16 114 16 C 115.105469 16 116 16.894531 116 18 L 116 22 C 116 23.105469 115.105469 24 114 24 Z M 79.996094 109.613281 C 79.117188 109.613281 78.308594 109.027344 78.070312 108.136719 C 77.78125 107.070312 78.410156 105.972656 79.476562 105.683594 L 83.476562 104.597656 C 84.542969 104.304688 85.640625 104.9375 85.929688 106.003906 C 86.21875 107.070312 85.589844 108.167969 84.523438 108.457031 L 80.523438 109.542969 C 80.347656 109.589844 80.171875 109.613281 79.996094 109.613281 Z M 64.046875 114.007812 L 53.453125 110.996094 C 52.390625 110.699219 51.773438 109.589844 52.074219 108.527344 C 52.375 107.464844 53.476562 106.84375 54.546875 107.152344 L 64.070312 109.855469 L 71.476562 107.851562 C 72.542969 107.554688 73.640625 108.191406 73.929688 109.257812 C 74.21875 110.324219 73.589844 111.425781 72.523438 111.710938 Z M 64.046875 114.007812 "/>
<path style=" stroke:none;fill-rule:nonzero;fill:rgb(100%,97.254902%,97.254902%);fill-opacity:1;" d="M 31 60 L 33.476562 64.523438 L 38 67 L 33.476562 69.476562 L 31 74 L 28.523438 69.476562 L 24 67 L 28.523438 64.523438 Z M 95.003906 94 L 96.757812 97.21875 L 100 99.003906 L 96.757812 100.757812 L 95.003906 104 L 93.21875 100.757812 L 90 99.003906 L 93.21875 97.21875 Z M 105.007812 46 L 106.070312 47.925781 L 108 48.996094 L 106.066406 50.054688 L 105.007812 52 L 103.933594 50.054688 L 102 48.996094 L 103.933594 47.925781 Z M 105.007812 46 "/>
<path style=" stroke:none;fill-rule:nonzero;fill:rgb(98.039216%,93.725491%,87.058824%);fill-opacity:1;" d="M 94.035156 34 L 34 34 C 32.773438 34 31.835938 35.097656 32.027344 36.308594 L 33.550781 46 L 82.746094 46 L 81.328125 58 L 50 58 L 50 70 L 79.910156 70 L 78.109375 85.25 L 64.1875 89.492188 L 51.894531 85.328125 L 51.007812 79.6875 C 50.851562 78.714844 50.015625 78 49.03125 78 L 40.933594 78 C 39.703125 78 38.765625 79.097656 38.957031 80.3125 L 40.984375 93.191406 C 41.097656 93.914062 41.605469 94.515625 42.300781 94.75 L 63.40625 101.898438 C 63.609375 101.964844 63.816406 102 64.027344 102 C 64.214844 102 64.40625 101.972656 64.589844 101.914062 L 87.875 94.820312 C 88.625 94.59375 89.167969 93.941406 89.257812 93.164062 L 95.039062 44.234375 L 95.988281 36.199219 C 96.128906 35.027344 95.214844 34 94.035156 34 Z M 94.035156 34 "/>
<path style=" stroke:none;fill-rule:nonzero;fill:rgb(55.29412%,42.352942%,62.352943%);fill-opacity:1;" d="M 64.027344 104 C 63.605469 104 63.1875 103.933594 62.78125 103.796875 L 41.660156 96.644531 C 40.257812 96.171875 39.242188 94.96875 39.011719 93.503906 L 36.980469 80.621094 C 36.796875 79.464844 37.128906 78.292969 37.890625 77.402344 C 38.652344 76.511719 39.761719 76.003906 40.933594 76.003906 L 49.03125 76.003906 C 51.015625 76.003906 52.675781 77.425781 52.984375 79.382812 L 53.683594 83.824219 L 64.222656 87.394531 L 76.28125 83.71875 L 77.660156 72 L 50 72 C 48.894531 72 48 71.105469 48 70 L 48 58 C 48 56.894531 48.894531 56 50 56 L 79.550781 56 L 80.496094 48 L 33.550781 48 C 32.566406 48 31.726562 47.285156 31.574219 46.308594 L 30.046875 36.617188 C 29.867188 35.464844 30.199219 34.289062 30.957031 33.398438 C 31.71875 32.511719 32.828125 32 34 32 L 94.039062 32 C 95.171875 32 96.25 32.484375 97.003906 33.332031 C 97.753906 34.179688 98.109375 35.308594 97.976562 36.433594 L 91.246094 93.398438 C 91.058594 94.960938 89.96875 96.273438 88.460938 96.730469 L 65.175781 103.828125 C 64.804688 103.945312 64.417969 104 64.027344 104 Z M 40.933594 80 L 42.960938 92.878906 L 64.046875 100.003906 L 87.292969 92.902344 L 94 36 L 34 36 L 35.261719 44 L 82.746094 44 C 83.320312 44 83.863281 44.242188 84.242188 44.671875 C 84.621094 45.097656 84.800781 45.667969 84.734375 46.234375 L 83.316406 58.234375 C 83.199219 59.242188 82.34375 60 81.328125 60 L 52 60 L 52 68 L 79.910156 68 C 80.480469 68 81.027344 68.242188 81.40625 68.671875 C 81.785156 69.097656 81.964844 69.667969 81.898438 70.234375 L 80.097656 85.484375 C 80.003906 86.273438 79.453125 86.933594 78.695312 87.160156 L 64.773438 91.40625 C 64.371094 91.53125 63.945312 91.523438 63.550781 91.386719 L 51.257812 87.222656 C 50.550781 86.984375 50.039062 86.375 49.921875 85.640625 L 49.03125 80 Z M 40.933594 80 "/>
</g>
</svg>
